<svg width="408" height="270" viewBox="0 0 408 270" fill="none" xmlns="http://www.w3.org/2000/svg">
<g clip-path="url(#clip0_18_2)">
<path d="M26.5207 266.567C-19.5121 254.251 -2.07205 187.704 51.5559 171.039C86.0989 160.304 133.745 183.685 133.489 211.245C133.383 222.668 118.513 226.284 116.812 215.3C109.689 169.28 47.4826 167.562 26.3131 212.8C13.0212 241.204 35.4666 265.363 62.9977 252.285C84.8776 241.892 82.3947 222.311 58.8432 219.522C53.3955 218.877 52.8751 216.982 56.358 210.474C63.6982 196.759 91.8516 205.996 95.4435 223.299C101.524 252.589 63.4992 276.461 26.5207 266.567ZM145.76 266.652C128.318 262.863 124.806 246.894 136.307 223.67C149.759 196.506 164.965 186.234 183.021 192.115C205.82 199.541 198.161 232.062 169.701 248.67C161.509 253.451 165.442 254.853 184.413 253.916C224.325 251.944 241.593 234.269 240.263 196.749C238.396 144.073 199.962 110.16 140.195 108.453C122.369 107.944 122.369 107.944 119.445 103.907C114.126 96.5639 115.251 94.3055 126.021 90.7124C149.292 82.9484 163.407 71.4121 178.021 48.2129C211.668 -5.20177 255.642 -15.9281 274.977 24.563C290.956 58.0261 280.355 120.198 260.567 109.076C254.673 105.764 252.714 101.674 255.412 98.3166C275.934 72.7862 269.766 25.0988 245.048 18.1779C229.656 13.8685 214.683 23.554 200.021 47.3042C186.443 69.298 168.927 86.7326 156.421 90.702C152.681 91.8891 154.638 92.8907 161.771 93.4394C175.431 94.4903 201.85 104.821 218.648 115.681C273.225 150.964 272.528 244.127 217.549 262.728C202.205 267.919 161.77 270.129 145.76 266.652ZM156.058 241.596C171.451 232.575 181.001 217.152 174.025 212.581C167.729 208.456 160.291 213.711 152.979 227.45C143.578 245.116 144.31 248.48 156.058 241.596ZM277.86 266.302C273.602 263.616 273.033 261.457 273.325 249.065C273.603 237.254 273.397 236.813 267.147 235.852C255.356 234.038 257.387 218.17 269.41 218.17C287.707 218.17 306.841 210.876 302.443 205.577C301.02 203.862 285.467 203.985 279.614 205.757C276.94 206.567 277.004 203.081 279.767 197.365C284.17 188.256 314.612 187.062 323.21 195.66C333.329 205.779 322.25 220.225 298.343 228.089C291.665 230.286 291.665 230.286 292.729 233.337C293.33 235.064 293.544 239.351 293.221 243.21C292.121 256.327 303.361 254.611 305.01 241.411C307.208 223.817 323.322 213.698 344.988 216.307C361.727 218.322 366.093 230.873 354.273 243.001C344.58 252.948 344.218 258.171 353.224 258.171C361.519 258.171 364.81 251.087 369.54 223.053C374.31 194.79 381.82 184.257 397.248 184.192C403.157 184.166 404.361 185.301 406.624 193.025C407.798 197.03 407.744 197.463 405.96 198.43C397.973 202.758 392.426 213.072 386.47 234.671C378.842 262.331 371.47 268.807 348.52 268.012C331.953 267.438 323.331 256.655 330.974 246.068C339.842 233.785 340.368 230.46 333.259 231.596C323.766 233.114 318.521 239.748 318.521 250.235C318.521 264.276 291.548 274.934 277.86 266.302Z" fill="white"/>
</g>
<defs>
<clipPath id="clip0_18_2">
<rect width="407.418" height="269.408" fill="white"/>
</clipPath>
</defs>
</svg>
