<svg width="332" height="170" viewBox="0 0 332 170" fill="none" xmlns="http://www.w3.org/2000/svg">
<g clip-path="url(#clip0_16_8)">
<path d="M36.5215 168.795C35.8885 168.162 35.3689 167.384 35.367 167.065C35.365 166.746 35.0718 164.274 34.7155 161.57C34.3591 158.866 33.6597 152.832 33.1611 148.162C32.6625 143.491 31.6583 134.341 30.9296 127.827C28.6248 107.224 25.5381 74.1018 25.5381 69.9724C25.5381 65.9022 21.2927 68.9766 10.8096 80.6385C3.97691 88.2395 2.30705 88.9799 0.695546 85.123C-1.61781 79.5864 1.67153 74.2345 13.0965 64.9462C41.2838 42.0304 68.2256 39.4714 78.9081 58.6951C89.8631 78.4091 76.8147 103.032 46.5411 119.774C44.2074 121.064 42.259 122.153 42.2113 122.192C42.1306 122.259 42.8606 127.33 45.178 142.799C46.6183 152.413 47.3621 156.711 48.4071 161.457C49.5398 166.601 49.3783 166.98 45.4267 168.459C41.2314 170.028 37.8815 170.155 36.5215 168.795ZM45.0989 112.778C75.6383 94.3294 81.6549 59.4491 55.0837 54.8926C48.6716 53.7931 34.2636 57.9885 35.1196 60.7059C35.2498 61.1191 35.6625 64.9768 36.0368 69.2786C37.0637 81.0812 40.3691 110.821 40.9917 113.86C41.2577 115.158 41.0813 115.205 45.0989 112.778ZM135.494 157.72C133.098 157.22 132.475 156.084 132.15 151.626C130.761 132.527 126.12 101.011 124.697 101.011C124.494 101.011 123.943 101.765 123.472 102.687C122.478 104.633 118.002 109.043 115.937 110.111C114.413 110.899 114.309 111.218 113.802 116.653C111.921 136.833 93.0416 145.976 85.2015 130.504C80.2323 120.698 81.3155 102.956 87.2453 97.0263C87.9658 96.3058 88.5554 95.3381 88.5554 94.8758C88.5554 91.7864 92.4975 87.3328 96.618 85.7671C105.448 82.4119 111.415 88.523 113.804 103.369C114.301 106.458 118.683 102.647 121.532 96.6471C123.313 92.8986 123.051 90.9083 119.097 78.1419C117.276 72.2619 117.309 71.9107 119.801 70.6395C125.433 67.7661 128.773 70.3606 130.365 78.8454C130.83 81.3265 131.204 81.1435 132.971 77.5677C138.306 66.774 149.663 62.8588 156.332 69.5147C170.041 83.1977 160.721 115.785 142.747 117.013C136.77 117.422 135.794 111.98 141.679 111.057C152.222 109.403 158.244 87.1249 150.524 78.3323C145.348 72.4376 139.192 75.8226 135.695 86.4854C133.496 93.1909 133.433 94.2788 134.747 102.798C135.373 106.854 136.708 115.603 137.713 122.24C138.719 128.877 140.124 137.927 140.835 142.352C142.887 155.11 142.867 154.769 141.649 156.185C140.448 157.581 137.887 158.219 135.494 157.72ZM100.471 129.774C103.304 128.429 105.413 123.961 106.414 117.183C107.021 113.074 107.156 113.228 102.736 112.996C98.1876 112.757 95.4815 111.576 92.5085 108.532C90.0856 106.051 89.8962 106.217 89.8962 110.821C89.8962 123.235 94.9945 132.372 100.471 129.774ZM106.512 105.48C105.529 94.8161 101.083 88.4427 97.2799 92.2456C93.6199 95.9055 96.7861 104.47 102.568 106.55C105.616 107.646 106.685 107.356 106.512 105.48ZM179.282 100.137C158.825 96.0809 163.635 50.326 184.679 48.8038C191.242 48.3291 196.051 58.5325 192.684 65.7846C190.485 70.5217 184.672 67.8142 185.793 62.5746C187.92 52.6322 182.9 51.0468 178.078 60.138C171.148 73.204 174.931 92.5189 184.42 92.5189C193.495 92.5189 201.203 80.0569 201.422 65.0327C201.57 54.8809 203.158 48.7657 206.555 45.2638C207.215 44.5835 207.892 43.2854 208.059 42.379C209.168 36.3678 217.627 31.5553 223.285 33.7161C227.699 35.4018 231.343 41.2561 232.644 48.7506C233.438 53.3257 233.31 53.2641 236.248 50.4849C240.14 46.8045 241.591 43.4344 241.783 37.6287C242.004 30.9674 241.825 30.3453 239.406 29.3507C233.057 26.7409 234.276 12.9652 240.855 12.9652C243.369 12.9652 245.861 16.6782 245.882 20.4561C245.893 22.4112 246.318 22.6611 250.568 23.2076C262.02 24.6803 263.178 26.177 263.742 40.228C264.03 47.3895 264.21 48.8127 265.093 50.8605C268.772 59.3946 276.397 50.3396 278.939 34.4179C279.436 31.3048 279.377 30.5407 278.113 23.6951C276.553 15.2417 276.488 15.5646 280.336 12.523C284.838 8.96428 285.517 9.57909 286.399 18.0183C287.115 24.8604 287.613 27.4728 287.992 26.3732C288.119 26.0047 288.826 23.1712 289.562 20.0769C295.806 -6.14767 312.013 -6.86214 314.02 18.9988C315.595 39.3002 323.347 35.8862 327.032 13.268C328.453 4.54893 332.42 5.57625 331.242 14.3581C327.266 43.994 307.827 51.7781 305.702 24.5854C304.782 12.823 303.442 10.0763 299.656 12.199C295.233 14.6794 290.804 30.1404 290.347 44.6973C290.084 53.0969 282.679 57.7367 281.771 50.0712C281.423 47.1304 281.26 47.2156 279.298 51.3617C273.784 63.0129 262.768 66.1044 257.864 57.3767C256.16 54.3434 255.422 50.4657 254.872 41.6533C254.282 32.191 253.347 30.5108 248.219 29.6908C246.322 29.3873 246.322 29.3874 246.322 34.4726C246.32 47.4793 244.464 55.1742 241.937 52.6471C241.512 52.2225 241.096 52.4668 240.017 53.7768C239.259 54.6962 237.482 56.2337 236.069 57.1935C233.499 58.9386 233.499 58.9386 233.216 62.8795C231.844 81.9306 215.613 93.1867 206.614 81.3266C204.973 79.1632 204.311 78.6853 204.311 79.6649C204.311 80.8553 200.406 88.2787 198.345 91.0066C193.54 97.3663 185.275 101.325 179.282 100.137ZM220.446 77.199C223.196 75.3549 225.385 69.7853 225.841 63.4684C225.987 61.4572 225.987 61.4573 222.243 61.1471C217.528 60.7563 214.492 59.3448 211.709 56.2502C209.182 53.4397 208.994 53.7638 209.371 60.2746C210.127 73.331 215.033 80.8282 220.446 77.199ZM225.596 55.0816C226.736 54.3385 224.496 44.4772 222.522 41.5486C218.924 36.2084 213.608 40.8644 215.702 47.5224C217.108 51.9943 220.078 54.537 224.869 55.3711C224.992 55.3938 225.319 55.2623 225.596 55.0816Z" fill="#FDEDAD"/>
</g>
<defs>
<clipPath id="clip0_16_8">
<rect width="331.458" height="169.732" fill="white"/>
</clipPath>
</defs>
</svg>
